<svg width="161" height="193" xmlns="http://www.w3.org/2000/svg" xmlns:xlink="http://www.w3.org/1999/xlink" overflow="hidden"><defs><clipPath id="clip0"><rect x="2598" y="1177" width="161" height="193"/></clipPath></defs>
    <g clip-path="url(#clip0)" transform="translate(-2598 -1177)">
        <path d="M2643.03 1231C2658.03 1231.65 2682.15 1232.73 2689.97 1252.13L2690 1347.39C2683.47 1353.58 2658.2 1358.69 2643.03 1357.92 2627.87 1357.16 2605.53 1348.98 2599 1342.79L2600.01 1249.2 2600.49 1249.2 2600.01 1248.25C2600.01 1238.72 2619.28 1231 2643.03 1231Z" fill="#C5A2C4" fill-rule="evenodd" fill-opacity="1"/>
        <path d="M2607 1252C2607 1244.27 2623.34 1238 2643.5 1238 2663.66 1238 2680 1244.27 2680 1252 2680 1259.73 2663.66 1266 2643.5 1266 2623.34 1266 2607 1259.73 2607 1252Z" fill="#E7E7EA" fill-rule="evenodd" fill-opacity="1"/>
        <path d="M2689.73 1270 2689.74 1321.06 2710.38 1326.07C2735.67 1333.83 2755.79 1345.14 2756 1355.32 2756.28 1368.9 2705.87 1368.97 2686.94 1363.93 2677.48 1361.41 2668.21 1360.46 2661.24 1359.21L2655.15 1357.54 2642.94 1357.98 2628 1354.69 2629.26 1353.81C2638.74 1347.05 2658.93 1331.57 2668.82 1315.87 2675.41 1305.41 2681.35 1292.28 2686.97 1277.82Z" fill="#000000" fill-rule="evenodd" fill-opacity="0.2"/>
        <path d="M2625.44 1241.5C2619.48 1234.19 2613.51 1226.88 2614.64 1220.28 2615.76 1213.68 2630.62 1208.02 2632.2 1201.89 2633.77 1195.76 2628.93 1189.63 2624.09 1183.5" stroke="#000000" stroke-width="4.58333" stroke-linecap="butt" stroke-linejoin="miter" stroke-miterlimit="8" stroke-opacity="0.2" fill="none" fill-rule="evenodd"/>
        <path d="M2663.05 1256.5C2656.75 1249.19 2650.46 1241.88 2651.65 1235.28 2652.83 1228.68 2668.52 1223.02 2670.18 1216.89 2671.84 1210.76 2666.73 1204.63 2661.63 1198.5" stroke="#000000" stroke-width="4.58333" stroke-linecap="butt" stroke-linejoin="miter" stroke-miterlimit="8" stroke-opacity="0.2" fill="none" fill-rule="evenodd"/>
    </g>
</svg>