<svg width="1393" height="1073" xmlns="http://www.w3.org/2000/svg" xmlns:xlink="http://www.w3.org/1999/xlink" overflow="hidden"><defs><clipPath id="clip0"><rect x="935" y="1122" width="1393" height="1073"/></clipPath></defs><g clip-path="url(#clip0)" transform="translate(-935 -1122)"><path d="M1818.32 1258.37C1921.47 1231.3 2041.59 1120.64 2123.65 1127.29 2205.72 1133.94 2285.95 1215.15 2310.71 1298.26 2335.46 1381.38 2331.34 1532.41 2272.19 1625.97 2213.05 1719.53 2122.28 1825.45 1955.86 1859.64 1789.44 1893.84 1440.09 1869.61 1273.67 1831.14 1107.25 1792.67 989.43 1717.63 957.338 1628.82 925.246 1540.01 989.888 1354.78 1081.12 1298.26 1172.35 1241.75 1381.41 1295.42 1504.74 1289.72 1628.06 1284.02 1715.17 1285.44 1818.32 1258.37Z" fill="#864F89" fill-rule="evenodd" fill-opacity="0.0980392"/><path d="M1780 1971.5C1780 1918.76 1877.83 1876 1998.5 1876 2119.17 1876 2217 1918.76 2217 1971.5 2217 2024.24 2119.17 2067 1998.5 2067 1877.83 2067 1780 2024.24 1780 1971.5Z" fill="#864F89" fill-rule="evenodd" fill-opacity="0.0980392"/><path d="M2078.11 1826C2088.68 1844.7 2099.24 1863.41 2110.56 1896.68 2120.46 1925.78 2137.2 1985.61 2143.85 2015.03L2144 2015.78 2132.35 2023 2116.9 2013.45 2113.88 2001.9C2108.7 1978.35 2102.82 1943.76 2095.47 1920.75 2085.66 1890.07 2070.25 1856.35 2060 1836.87Z" fill="#864F89" fill-rule="evenodd" fill-opacity="1"/><path d="M18.0479 0C28.5758 20.1948 39.1038 40.3898 50.3838 76.3071 60.2537 107.735 76.9368 172.333 83.5564 204.095L83.7094 204.899 72.0978 212.697 56.7026 202.385 53.6914 189.916C48.5273 164.485 42.6757 127.144 35.3437 102.302 25.5677 69.1797 10.2146 32.7733 0 11.7398Z" fill="#864F89" fill-rule="evenodd" fill-opacity="1" transform="matrix(-0.992937 0.118639 0.118639 0.992937 1930.99 1824.32)"/><path d="M15.1825 0C24.0389 14.2764 32.8955 28.553 42.3845 53.9443 50.6874 76.1617 64.7218 121.829 70.2904 144.282L70.4191 144.851 60.6511 150.363 47.7001 143.074 45.167 134.259C40.8228 116.28 35.9003 89.8826 29.7323 72.3211 21.5084 48.9057 8.59285 23.1686 0 8.29929Z" fill="#864F89" fill-rule="evenodd" fill-opacity="1" transform="matrix(-0.998142 0.0609333 0.0609333 0.998142 1898.21 1808.33)"/><path d="M2095.95 1794C2105.26 1807.01 2114.57 1820.02 2124.54 1843.15 2133.26 1863.39 2148.01 1905 2153.86 1925.46L2154 1925.98 2143.74 1931 2130.13 1924.36 2127.46 1916.33C2122.9 1899.95 2117.73 1875.89 2111.24 1859.89 2102.6 1838.56 2089.03 1815.11 2080 1801.56Z" fill="#864F89" fill-rule="evenodd" fill-opacity="1"/><path d="M2072.98 1829 2087.86 1843.58 2094.1 1855.77C2099.47 1866.95 2104.93 1879.95 2110.59 1896.6 2120.48 1925.72 2137.21 1985.59 2143.85 2015.03L2144 2015.77 2132.36 2023 2132.2 2022.9 2132.13 2022.16C2131.13 2012.86 2129.6 2001.08 2127.46 1991.19 2123.17 1971.41 2114.29 1940.72 2107.86 1919.62 2101.42 1898.51 2095.71 1880.67 2088.87 1864.56 2085.45 1856.5 2081.83 1849.29 2078.13 1842.5L2071 1830.19Z" fill="#000000" fill-rule="evenodd" fill-opacity="0.2"/><path d="M1.97252 0 16.8147 15.7331 23.0379 28.8885C28.3958 40.9513 33.8479 54.9792 39.4877 72.9379 49.3576 104.366 66.0407 168.964 72.6603 200.726L72.8133 201.53 61.2018 209.328 61.043 209.221 60.9724 208.42C59.9796 198.381 58.4522 185.675 56.3136 175.004 52.0366 153.661 43.177 120.547 36.7616 97.7748 30.3462 75.0023 24.6434 55.7499 17.8206 38.368 14.4092 29.677 10.8069 21.8937 7.10915 14.5641L0 1.28315Z" fill="#000000" fill-rule="evenodd" fill-opacity="0.2" transform="matrix(-0.992937 0.118639 0.118639 0.992937 1920.57 1828.96)"/><path d="M1.65935 0 14.1451 11.1223 19.3802 20.4223C23.8874 28.95 28.4739 38.8668 33.2183 51.5625 41.5212 73.7799 55.5555 119.447 61.1241 141.9L61.2528 142.469 51.4849 147.981 51.3513 147.906 51.2919 147.34C50.4567 140.243 49.1718 131.26 47.3728 123.717 43.7748 108.629 36.3218 85.2193 30.925 69.1206 25.5282 53.0219 20.7308 39.4117 14.9913 27.1237 12.1215 20.9798 9.09111 15.4775 5.98044 10.2959L0 0.907103Z" fill="#000000" fill-rule="evenodd" fill-opacity="0.2" transform="matrix(-0.998142 0.0609333 0.0609333 0.998142 1889.21 1811.27)"/><path d="M2091.73 1797 2104.78 1807.07 2110.25 1815.49C2114.96 1823.21 2119.75 1832.19 2124.71 1843.69 2133.38 1863.81 2148.05 1905.16 2153.87 1925.49L2154 1926.01 2143.79 1931 2143.65 1930.93 2143.59 1930.42C2142.72 1923.99 2141.38 1915.86 2139.5 1909.03 2135.74 1895.37 2127.95 1874.17 2122.31 1859.59 2116.67 1845.01 2111.66 1832.69 2105.66 1821.56 2102.67 1816 2099.5 1811.02 2096.25 1806.32L2090 1797.82Z" fill="#000000" fill-rule="evenodd" fill-opacity="0.2"/><path d="M1789 1768.5C1789 1724.04 1876.53 1688 1984.5 1688 2092.47 1688 2180 1724.04 2180 1768.5 2180 1812.96 2092.47 1849 1984.5 1849 1876.53 1849 1789 1812.96 1789 1768.5Z" fill="#864F89" fill-rule="evenodd" fill-opacity="1"/><path d="M1789 1760.5C1789 1716.04 1876.53 1680 1984.5 1680 2092.47 1680 2180 1716.04 2180 1760.5 2180 1804.96 2092.47 1841 1984.5 1841 1876.53 1841 1789 1804.96 1789 1760.5Z" fill="#F2F2F2" fill-rule="evenodd" fill-opacity="1"/><path d="M1847.23 1681C1855.14 1681.35 1867.86 1681.93 1871.99 1692.31L1872 1743.32C1868.56 1746.63 1855.23 1749.37 1847.23 1748.96 1839.23 1748.55 1827.44 1744.17 1824 1740.86L1824.54 1690.74 1824.79 1690.74 1824.54 1690.24C1824.54 1685.13 1834.69 1681 1847.23 1681Z" fill="#864F89" fill-rule="evenodd" fill-opacity="1"/><path d="M1847.23 1681C1855.14 1681.35 1867.86 1681.93 1871.99 1692.31L1872 1743.32C1868.56 1746.63 1855.23 1749.37 1847.23 1748.96 1839.23 1748.55 1827.44 1744.17 1824 1740.86L1824.54 1690.74 1824.79 1690.74 1824.54 1690.24C1824.54 1685.13 1834.69 1681 1847.23 1681Z" fill="#FFFFFF" fill-rule="evenodd" fill-opacity="0.501961"/><path d="M1828 1692.5C1828 1688.36 1836.73 1685 1847.5 1685 1858.27 1685 1867 1688.36 1867 1692.5 1867 1696.64 1858.27 1700 1847.5 1700 1836.73 1700 1828 1696.64 1828 1692.5Z" fill="#E7E7EA" fill-rule="evenodd" fill-opacity="1"/><path d="M1871.79 1702 1871.8 1728.85 1882.77 1731.48C1896.2 1735.56 1906.89 1741.51 1907 1746.86 1907.15 1754 1880.37 1754.04 1870.31 1751.39 1865.29 1750.06 1860.36 1749.56 1856.66 1748.9L1853.43 1748.03 1846.94 1748.26 1839 1746.53 1839.67 1746.06C1844.71 1742.51 1855.43 1734.37 1860.68 1726.12 1864.18 1720.62 1867.34 1713.71 1870.33 1706.11Z" fill="#000000" fill-rule="evenodd" fill-opacity="0.2"/><path d="M960.177 1978.56C918.037 2006.04 937.733 2007.87 1004.15 2036.27 1070.57 2064.66 1251.03 2151.68 1358.68 2148.94 1466.32 2146.19 1666.94 2066.04 1649.99 2019.78 1633.04 1973.52 1372.42 1878.26 1256.99 1871.39 1141.56 1864.52 1002.32 1951.08 960.177 1978.56Z" fill="#864F89" fill-rule="evenodd" fill-opacity="0.0980392"/><path d="M1396.5 1627.21C1409.86 1626.28 1423.22 1628.38 1435.67 1635.03 1468.86 1652.77 1507.56 1702.71 1532.89 1756.38 1558.22 1810.05 1573.95 1908.83 1587.64 1957.06 1594.48 1981.17 1601.41 1999.3 1606.58 2013.42L1608 2017.4 1595.19 2028 1575.87 2019.4 1573.6 2007.99C1569.59 1987.36 1564.91 1962.51 1557.43 1936.53 1542.49 1884.57 1517.79 1789.36 1496.08 1742.38 1474.37 1695.39 1449.67 1669.26 1427.17 1654.63 1404.67 1640.01 1382.18 1642.03 1361.1 1654.63 1340.02 1667.24 1317.99 1703.64 1300.68 1730.24 1283.38 1756.84 1270.01 1783.91 1257.26 1814.25 1250.89 1829.42 1244.76 1850.96 1239.15 1870.2L1235.91 1881.14 1219.51 1886.12 1206 1881.76 1206.29 1879.59C1212.43 1851.43 1239.8 1781.58 1261.04 1743.31 1282.28 1705.04 1304.62 1668.01 1333.72 1649.97 1351.91 1638.69 1374.22 1628.75 1396.5 1627.21Z" fill="#864F89" fill-rule="evenodd" fill-opacity="1"/><path d="M1426.42 1641.6 1427.69 1642.23C1434.52 1646.18 1441 1650.46 1446.93 1654.9 1470.68 1672.64 1486.88 1691.01 1504.5 1726.8 1522.12 1762.6 1538.94 1823.61 1552.63 1869.67 1566.31 1915.74 1577.64 1969.44 1586.6 2003.21 1588.28 2009.54 1590.11 2015.51 1591.95 2021.1L1594 2027 1575.78 2018.89 1573.51 2007.47C1569.5 1986.83 1564.82 1961.97 1557.35 1935.97 1542.41 1883.99 1517.71 1788.74 1496.01 1741.74 1485.15 1718.24 1473.55 1699.96 1461.86 1685.72L1456.31 1679.87 1455.02 1677.17C1448.13 1663.97 1442.01 1656 1435.67 1649.67ZM1405.95 1631.42 1408 1631.48C1412.85 1632.23 1417.68 1634.24 1422.4 1638.09L1426.42 1641.6 1406.36 1631.55ZM1393.08 1627 1405.95 1631.42 1400.71 1631.25C1388.56 1632.2 1376.49 1639.32 1365.78 1643.69 1348.63 1650.7 1335.26 1661.9 1319.54 1680.11 1303.81 1698.32 1286.98 1723.22 1271.41 1752.95 1255.84 1782.68 1237.75 1826.72 1226.11 1858.47 1223.93 1864.42 1221.98 1871.18 1220.2 1878.23L1218.6 1885.26 1206 1881.19 1206.29 1879.01C1212.43 1850.84 1239.79 1780.96 1261.03 1742.68 1282.26 1704.39 1304.59 1667.35 1333.69 1649.3 1348.24 1640.27 1365.42 1632.1 1383.12 1628.4Z" fill="#000000" fill-rule="evenodd" fill-opacity="0.2"/><path d="M1415.18 2131.02C1410.94 2130.97 1406.7 2130.91 1403.67 2132.84 1400.64 2134.76 1396.81 2136.79 1397.01 2142.56 1397.21 2148.33 1397.82 2158.87 1404.88 2167.47 1411.95 2176.08 1428.61 2191.37 1439.41 2194.21 1450.21 2197.05 1467.27 2191.88 1469.69 2184.49 1472.12 2177.1 1459.5 2157.35 1453.95 2149.85 1448.39 2142.36 1442.39 2140.94 1436.38 2139.52" fill="#D8D9DE" fill-rule="evenodd" fill-opacity="1"/><path d="M1423.11 2117C1418.84 2122.32 1414.08 2133.27 1414.08 2133.27 1412.48 2148.43 1435.04 2155.46 1442.36 2153.75 1448.67 2149.13 1453.34 2136.08 1458 2123.02" fill="#C2B39D" fill-rule="evenodd" fill-opacity="1"/><path d="M1399.82 2136 1399.52 2139.18C1399.42 2142.44 1399.57 2145.48 1400.05 2148.23 1401.98 2159.22 1409.07 2165.07 1416.47 2171.83 1423.87 2178.58 1435.94 2186.45 1444.45 2188.77 1452.97 2191.09 1461.69 2189.47 1467.57 2185.74L1469.88 2183.19 1470 2184.53C1467.57 2191.89 1450.43 2197.04 1439.59 2194.21 1428.74 2191.39 1412.01 2176.16 1404.92 2167.59 1397.82 2159.02 1397.21 2148.53 1397.01 2142.78 1396.91 2139.91 1397.82 2137.97 1399.14 2136.51Z" fill="#848484" fill-rule="evenodd" fill-opacity="1"/><path d="M1168.11 1494C1145.27 1520.65 1122.43 1547.29 1116.23 1584.94 1110.03 1622.59 1117.37 1680.61 1130.91 1719.88 1144.45 1759.16 1165.5 1792.9 1197.48 1820.6 1229.46 1848.31 1287.06 1877.15 1322.8 1886.12 1358.53 1895.08 1375.99 1887.42 1411.89 1874.38 1447.78 1861.35 1514.52 1826.47 1538.18 1807.89 1561.84 1789.31 1553.51 1772.69 1553.84 1762.91 1554.17 1753.13 1546.99 1752.64 1540.13 1749.22 1533.28 1745.8 1533.93 1744.82 1512.72 1742.37 1491.51 1739.93 1452.19 1737.24 1412.86 1734.55" fill="#000000" fill-rule="evenodd" fill-opacity="1"/><path d="M1551.6 1754.02C1546.23 1743.75 1513.19 1727.13 1495.95 1720.78 1478.7 1714.42 1461.61 1720.29 1448.11 1715.89 1434.6 1711.49 1425.81 1712.3 1414.91 1694.38 1404.01 1676.45 1401.57 1642.39 1382.69 1608.33 1363.81 1574.27 1336.97 1509.25 1301.65 1490.02 1266.34 1470.79 1198.16 1470.95 1170.83 1492.95 1143.49 1514.95 1134.38 1573.94 1137.63 1622.02 1140.88 1670.09 1164.15 1743.59 1190.35 1781.4 1216.55 1819.21 1262.76 1837.13 1294.82 1848.87 1326.88 1860.6 1343.8 1862.88 1382.69 1851.8 1421.58 1840.72 1501.32 1798.18 1528.16 1782.38 1555.01 1766.57 1556.97 1764.29 1551.6 1754.02Z" fill="#262626" fill-rule="evenodd" fill-opacity="1"/><path d="M1435.3 1653C1455.8 1672.58 1476.29 1692.16 1490.36 1704.53 1504.43 1716.9 1515.44 1717.52 1519.72 1727.23 1524 1736.94 1521.96 1760.66 1516.05 1762.81 1510.14 1764.96 1493.93 1748.29 1484.24 1740.11 1474.55 1731.93 1470.48 1725.08 1457.94 1713.73 1445.4 1702.38 1427.2 1687.2 1409 1672.02" fill="#C1B29C" fill-rule="evenodd" fill-opacity="1"/><path d="M1171.13 1718.22C1184.96 1717.25 1198.78 1719.45 1211.67 1726.41 1246.02 1744.99 1286.07 1797.29 1312.28 1853.51 1338.49 1909.72 1354.77 2013.19 1368.93 2063.7 1376.01 2088.96 1383.18 2107.94 1388.53 2122.72L1390 2126.9 1376.74 2138 1356.75 2129 1354.4 2117.04C1350.25 2095.43 1345.41 2069.4 1337.67 2042.19 1322.21 1987.77 1296.65 1888.05 1274.18 1838.84 1251.71 1789.63 1226.15 1762.26 1202.87 1746.94 1179.59 1731.63 1156.31 1733.75 1134.5 1746.94 1112.68 1760.14 1089.89 1798.27 1071.98 1826.13 1054.07 1854 1040.24 1882.35 1027.05 1914.12 1020.46 1930.01 1014.11 1952.57 1008.31 1972.72L1004.95 1984.18 987.977 1989.4 974 1984.83 974.302 1982.56C980.651 1953.06 1008.98 1879.9 1030.96 1839.82 1052.93 1799.74 1076.05 1760.96 1106.17 1742.06 1124.99 1730.24 1148.08 1719.83 1171.13 1718.22Z" fill="#864F89" fill-rule="evenodd" fill-opacity="1"/><path d="M1202.37 1734.29 1203.69 1734.96C1210.76 1739.1 1217.48 1743.58 1223.63 1748.22 1248.23 1766.81 1265.02 1786.05 1283.27 1823.54 1301.52 1861.04 1318.96 1924.95 1333.14 1973.2 1347.31 2021.46 1359.05 2077.7 1368.33 2113.08 1370.08 2119.71 1371.97 2125.96 1373.87 2131.82L1376 2138 1357.12 2129.5 1354.77 2117.54C1350.61 2095.92 1345.76 2069.88 1338.02 2042.65 1322.54 1988.2 1296.96 1888.43 1274.47 1839.19 1263.23 1814.58 1251.21 1795.42 1239.09 1780.5L1233.34 1774.38 1232.01 1771.55C1224.87 1757.72 1218.53 1749.38 1211.96 1742.75ZM1181.16 1723.62 1183.29 1723.69C1188.32 1724.47 1193.32 1726.58 1198.21 1730.62L1202.37 1734.29 1181.58 1723.77ZM1167.83 1719 1181.16 1723.62 1175.73 1723.45C1163.15 1724.45 1150.64 1731.9 1139.54 1736.49 1121.78 1743.82 1107.93 1755.56 1091.63 1774.64 1075.34 1793.71 1057.9 1819.79 1041.77 1850.93 1025.63 1882.07 1006.89 1928.21 994.835 1961.46 992.574 1967.7 990.553 1974.78 988.709 1982.17L987.052 1989.52 974 1985.26 974.302 1982.98C980.657 1953.48 1009.01 1880.28 1031.01 1840.17 1053.01 1800.07 1076.15 1761.27 1106.3 1742.36 1121.37 1732.9 1139.17 1724.34 1157.51 1720.47Z" fill="#000000" fill-rule="evenodd" fill-opacity="0.2"/><path d="M1349.34 1748.95C1356.45 1742.92 1374.16 1739.01 1405.71 1742.06 1437.27 1745.11 1506.3 1753.9 1538.67 1767.26 1571.05 1780.61 1601.33 1801.28 1599.96 1822.18 1597.32 1862.28 1548.43 1955.52 1524.95 2008 1501.48 2060.48 1479.22 2101.52 1459.1 2137.06 1435.31 2140.57 1423.42 2134.32 1420.68 2116.92 1422.51 2094.04 1451.32 2047.81 1470.07 1999.76 1488.82 1951.7 1538.21 1846.28 1533.18 1828.59 1518.09 1809.97 1393.7 1791.51 1363.06 1778.24 1332.41 1764.97 1342.23 1754.98 1349.34 1748.95Z" fill="#864F89" fill-rule="evenodd" fill-opacity="1"/><path d="M1343 1762 1362.05 1765.1C1406.32 1772.46 1447.54 1780.07 1476.54 1788.68 1515.21 1800.17 1541.39 1804.13 1549.12 1826.7 1556.86 1849.28 1539.21 1890.07 1522.95 1924.13 1510.75 1949.67 1492.19 1976.55 1472.05 2003.77L1462.86 2016 1470.09 1999.4C1488.9 1951.32 1538.43 1845.84 1533.38 1828.14 1518.25 1809.51 1393.51 1791.04 1362.78 1777.77 1351.26 1772.79 1345.78 1768.34 1343.68 1764.39Z" fill="#000000" fill-rule="evenodd" fill-opacity="0.2"/><path d="M1538.95 1851.35C1537.88 1839.04 1526.56 1836.45 1505.9 1823.07 1485.24 1809.69 1440.41 1783.38 1415.01 1771.06 1389.6 1758.75 1369.56 1747.49 1353.49 1749.17 1337.43 1750.84 1325.03 1773.19 1318.6 1781.1 1312.18 1789.01 1302.69 1788.7 1314.93 1796.61 1327.17 1804.52 1369.25 1818.35 1392.05 1828.54 1414.85 1838.73 1437.04 1848.62 1451.73 1857.74 1466.42 1866.86 1470.09 1876.75 1480.19 1883.29 1490.29 1889.82 1502.08 1901.53 1512.33 1896.97 1522.58 1892.41 1540.02 1863.67 1538.95 1851.35Z" fill="#864F89" fill-rule="evenodd" fill-opacity="1"/><path d="M1326.64 1770 1352.25 1780.83C1391.37 1797.53 1427.7 1813.79 1452.87 1828.28 1486.42 1847.6 1488.72 1848.55 1513.84 1879.92L1521 1889.21 1520.7 1889.63C1517.65 1893.17 1514.64 1895.83 1512.08 1896.97 1501.84 1901.54 1490.08 1889.81 1479.99 1883.25 1469.91 1876.7 1466.24 1866.79 1451.57 1857.65 1436.9 1848.51 1414.75 1838.6 1391.98 1828.39 1372.06 1819.45 1337.4 1807.72 1320.85 1799.62L1318.75 1798.46 1316 1783.3 1318.64 1780.84C1320.24 1778.86 1322.22 1775.97 1324.53 1772.73Z" fill="#000000" fill-rule="evenodd" fill-opacity="0.2"/><path d="M202.924 267.239 189.7 271.722C185.423 273.096 181.577 274.247 178.523 275.047 169.36 277.446 165.733 276.414 161.922 274.141L141.282 261.829 137.043 259.17 145.705 263.368C153.087 266.251 160.536 268.375 167.997 269.431 175.457 270.486 183.24 270.383 191.166 269.498L202.924 267.239ZM357.491 135.315C353.164 120.146 344.175 105.664 333.383 97.5877L327.951 94.4138 328.062 94.4095C310.914 81.0979 293.946 67.8139 268.82 57.9545 243.694 48.0952 192.245 41.2168 177.307 35.2538 167.823 31.4676 147.421 13.9696 132.478 3.32737 132.478 3.32737 118.833-2.06987 112.315 0.883316 105.798 3.83651 91.8471 13.5108 93.3745 21.0463 94.9019 28.5819 107.225 36.7002 117.203 44.8754 127.181 53.0506 143.027 65.782 153.242 70.0971L195.638 82.7807C207.32 86.1566 213.327 87.9665 223.339 90.3523L235.053 92.9608 213.51 93.7296C186.542 89.9567 137.054 77.6132 106.476 63.2211 75.8984 48.8287 47.7062 25.872 30.0433 7.37632 12.5607 17.8772 4.55943 101.087 1.58118 126.226-1.39727 151.364-1.31996 141.687 12.1723 158.207 22.2913 170.597 42.2014 191.74 62.4804 209.359L73.022 217.763 72.7035 217.908C72.7035 217.908 61.1811 230.373 61.7872 237.563 61.7872 237.563 65.1901 250.045 76.3407 261.05 87.491 272.055 119.959 296.191 128.69 303.594 148.767 325.846 171.11 318.166 183.201 317.305 207.243 315.592 249.958 293.212 271.404 281.884 292.85 270.556 299.963 260.638 311.875 249.337 317.831 243.686 323.195 237.865 328.263 231.96L339.287 218.466 340.601 217.516C357.029 200.82 361.362 170.488 360.159 150.5 359.858 145.503 358.934 140.371 357.491 135.315Z" fill="#864F89" fill-rule="evenodd" fill-opacity="1" transform="matrix(-0.237677 -0.971344 -0.971344 0.237677 1461.72 1764.75)"/><path d="M202.924 267.239 189.7 271.722C185.423 273.096 181.577 274.247 178.523 275.047 169.36 277.446 165.733 276.414 161.922 274.141L141.282 261.829 137.043 259.17 145.705 263.368C153.087 266.251 160.536 268.375 167.997 269.431 175.457 270.486 183.24 270.383 191.166 269.498L202.924 267.239ZM357.491 135.315C353.164 120.146 344.175 105.664 333.383 97.5877L327.951 94.4138 328.062 94.4095C310.914 81.0979 293.946 67.8139 268.82 57.9545 243.694 48.0952 192.245 41.2168 177.307 35.2538 167.823 31.4676 147.421 13.9696 132.478 3.32737 132.478 3.32737 118.833-2.06987 112.315 0.883316 105.798 3.83651 91.8471 13.5108 93.3745 21.0463 94.9019 28.5819 107.225 36.7002 117.203 44.8754 127.181 53.0506 143.027 65.782 153.242 70.0971L195.638 82.7807C207.32 86.1566 213.327 87.9665 223.339 90.3523L235.053 92.9608 213.51 93.7296C186.542 89.9567 137.054 77.6132 106.476 63.2211 75.8984 48.8287 47.7062 25.872 30.0433 7.37632 12.5607 17.8772 4.55943 101.087 1.58118 126.226-1.39727 151.364-1.31996 141.687 12.1723 158.207 22.2913 170.597 42.2014 191.74 62.4804 209.359L73.022 217.763 72.7035 217.908C72.7035 217.908 61.1811 230.373 61.7872 237.563 61.7872 237.563 65.1901 250.045 76.3407 261.05 87.491 272.055 119.959 296.191 128.69 303.594 148.767 325.846 171.11 318.166 183.201 317.305 207.243 315.592 249.958 293.212 271.404 281.884 292.85 270.556 299.963 260.638 311.875 249.337 317.831 243.686 323.195 237.865 328.263 231.96L339.287 218.466 340.601 217.516C357.029 200.82 361.362 170.488 360.159 150.5 359.858 145.503 358.934 140.371 357.491 135.315Z" fill="#FFFFFF" fill-rule="evenodd" fill-opacity="0.486275" transform="matrix(-0.237677 -0.971344 -0.971344 0.237677 1461.72 1764.75)"/><path d="M1180.4 1541.1C1180.4 1541.1 1164.4 1603.88 1167.43 1628.12 1167.43 1628.12 1179.32 1664.92 1198.58 1686.57 1210.61 1700.1 1241.91 1723.18 1262.85 1739.49L1271 1746 1257.4 1741.89C1249.26 1739.22 1241.49 1736.51 1233.73 1733.8L1233.64 1733.89 1233.4 1730.94C1232.96 1728.31 1232.5 1726.44 1232.5 1726.44 1225.86 1719.9 1206.04 1714.58 1193.28 1706.2 1190.08 1704.1 1186.82 1701.37 1183.57 1698.39L1176.29 1691.32 1168.13 1680.19C1164.99 1675.21 1162.3 1670.1 1160.19 1664.83 1157.39 1657.81 1155.63 1650.19 1154.6 1642.25L1154 1630.25 1157.04 1611.24C1161.58 1593.27 1178.67 1538.29 1180.4 1541.1Z" fill="#000000" fill-rule="evenodd" fill-opacity="0.121569"/><path d="M1270.01 1432.29C1265.16 1427.6 1259.01 1413.76 1260.13 1406.71 1261.26 1399.67 1270.53 1389.66 1276.77 1390.01 1283.01 1390.36 1295.48 1401.32 1297.56 1408.8 1299.64 1416.29 1293.92 1431.08 1289.24 1434.9 1284.57 1438.73 1274.86 1436.99 1270.01 1432.29Z" fill="#864F89" fill-rule="evenodd" fill-opacity="1"/><path d="M1250.81 1447.9C1234.13 1450.54 1198.54 1442 1187.68 1430.37 1176.82 1418.74 1187.57 1389.52 1185.66 1378.13 1183.74 1366.74 1174.79 1369.16 1176.17 1362.04 1177.56 1354.93 1181 1336.94 1193.97 1335.46 1206.95 1333.98 1237.74 1352.86 1254.01 1353.16 1270.29 1353.46 1291.64 1337.25 1291.64 1337.25 1301.57 1338.76 1312.88 1353.17 1313.62 1362.18 1314.37 1371.19 1296.11 1391.31 1296.11 1391.31 1292.16 1395.94 1289.93 1389.96 1289.93 1389.96 1288.54 1393.83 1293.26 1404.09 1287.78 1414.56 1282.3 1425.02 1267.49 1445.26 1250.81 1447.9Z" fill="#333333" fill-rule="evenodd" fill-opacity="1"/><path d="M1217.84 1383.56C1228.07 1383.46 1245.56 1393.35 1256.55 1394.36 1265.96 1395.23 1277.47 1393.77 1284.28 1392.44L1285.74 1392.09 1287.23 1398.74C1288.02 1404.83 1287.73 1411.24 1286.18 1417.68 1283.08 1430.55 1275.55 1441.07 1265.88 1447.66L1260.18 1450.1 1259.91 1451.63 1260.99 1451.77 1268.62 1458.81C1264.64 1469.46 1254.35 1472.8 1240.08 1486.79 1220.55 1472.93 1202.43 1471.84 1196.93 1462.01L1207.09 1457.72 1210.51 1438.5 1206.17 1433.29 1204.11 1428.5 1203.37 1425.87C1202.69 1422.92 1202.31 1420.02 1202.64 1417.29 1203.97 1406.37 1204.97 1388.1 1213.95 1384.27 1215.07 1383.8 1216.38 1383.58 1217.84 1383.56Z" fill="#EDD9BF" fill-rule="evenodd" fill-opacity="1"/><path d="M1183.01 1435.29C1178.16 1430.6 1172.01 1416.76 1173.13 1409.71 1174.26 1402.67 1183.53 1392.66 1189.77 1393.01 1196.01 1393.36 1208.48 1404.32 1210.56 1411.8 1212.64 1419.28 1206.92 1434.08 1202.24 1437.9 1197.57 1441.73 1187.86 1439.99 1183.01 1435.29Z" fill="#864F89" fill-rule="evenodd" fill-opacity="1"/><path d="M1178.09 1421.09C1176.37 1413.87 1179.03 1407.05 1184.04 1405.86 1189.04 1404.66 1194.49 1409.55 1196.21 1416.77 1197.93 1423.99 1195.27 1430.81 1190.26 1432 1185.26 1433.2 1179.81 1428.31 1178.09 1421.09Z" fill="#FFFFFF" fill-rule="evenodd" fill-opacity="0.501961"/><path d="M1182.01 1400.36C1181.71 1399.53 1187.78 1393.48 1191.73 1395.36 1195.67 1397.23 1204.07 1404.84 1205.69 1411.62 1207.31 1418.39 1202.05 1435.9 1201.44 1436 1200.83 1436.1 1203.36 1418.18 1202.05 1412.24 1200.73 1406.3 1196.58 1402.44 1193.55 1400.36 1190.51 1398.28 1182.31 1401.19 1182.01 1400.36Z" fill="#000000" fill-rule="evenodd" fill-opacity="0.2"/><path d="M1187.07 1395.56C1187.92 1389.05 1192.37 1368.27 1201.06 1360.38 1209.75 1352.5 1229.88 1349.62 1239.2 1348.23 1248.52 1346.85 1257 1352.07 1257 1352.07 1254.99 1353.67 1235.7 1355.37 1227.12 1357.83 1218.54 1360.28 1210.7 1359.85 1205.51 1366.78 1200.32 1373.71 1199.05 1394.6 1195.97 1399.39 1192.9 1404.19 1186.23 1402.06 1187.07 1395.56Z" fill="#848484" fill-rule="evenodd" fill-opacity="1"/><path d="M1229 1496.17 1239.5 1490 1255.26 1491.76 1254.38 1506.76 1248.26 1507.64 1321 1670.32 1318.57 1701 1284.73 1681.4 1241.25 1508.52 1237.75 1512.93 1229 1496.17Z" fill="#864F89" fill-rule="evenodd" fill-opacity="1"/><path d="M1196 1466 1205.71 1509 1241 1488.82 1209.24 1501.98 1196 1466Z" fill="#000000" fill-rule="evenodd" fill-opacity="0.2"/><path d="M1235.94 1489.89 1279.91 1494.24 1271.75 1454.47 1274.33 1488.69 1235.94 1489.89Z" fill="#000000" fill-rule="evenodd" fill-opacity="0.2"/><path d="M1257.24 1450.92 1260.83 1451.41C1271.04 1453.83 1280.53 1458.17 1287.45 1463.98L1288 1464.69 1282.8 1470.85C1277.44 1476.78 1271.63 1482.33 1267.42 1484.67 1258.99 1489.34 1252.12 1486.1 1244.87 1482.8 1237.63 1479.5 1228.43 1472.56 1223.96 1464.88L1219 1447 1227.1 1451.03 1232.66 1453.81C1238.47 1455.24 1244.32 1455.27 1249.93 1454.11L1257.24 1450.92Z" fill="#000000" fill-rule="evenodd" fill-opacity="0.121569"/><path d="M1420.43 1827 1327 1790.25 1456.42 1723 1545 1762.52 1420.43 1827Z" fill="#E7E7EA" fill-rule="evenodd" fill-opacity="1"/><path d="M1387 1762.55 1421.11 1745 1442 1753.1 1411.37 1772 1387 1762.55Z" fill="#B3B4B0" fill-rule="evenodd" fill-opacity="1"/><path d="M1376 1797.52 1387.72 1803 1487 1746.11 1473.21 1742 1376 1797.52Z" fill="#B3B4B0" fill-rule="evenodd" fill-opacity="1"/><path d="M1393 1806.43 1404.72 1812 1504 1754.18 1490.21 1750 1393 1806.43Z" fill="#B3B4B0" fill-rule="evenodd" fill-opacity="1"/><path d="M1410 1814.52 1421.72 1820 1521 1763.11 1507.21 1759 1410 1814.52Z" fill="#B3B4B0" fill-rule="evenodd" fill-opacity="1"/><path d="M1446.92 1733.86 1566 1669 1542.46 1762.14 1422 1827 1446.92 1733.86Z" fill="#F2F2F2" fill-rule="evenodd" fill-opacity="1"/><path d="M1346 1802C1327.11 1800.47 1285.87 1785.92 1264.54 1778.8 1243.2 1771.67 1233.41 1766.49 1218 1759.26 1223.51 1752.55 1233.31 1744 1232.69 1733 1247.38 1738.09 1264.23 1744.81 1282.91 1750.1 1301.59 1755.39 1328.95 1763.74 1344.78 1764.75" fill="#C1B29C" fill-rule="evenodd" fill-opacity="1"/></g></svg>