<svg width="26" height="24" xmlns="http://www.w3.org/2000/svg" xmlns:xlink="http://www.w3.org/1999/xlink" overflow="hidden"><defs><clipPath id="clip0"><rect x="466" y="140" width="26" height="24"/></clipPath><clipPath id="clip1"><rect x="467" y="140" width="24" height="24"/></clipPath><clipPath id="clip2"><rect x="467" y="140" width="24" height="24"/></clipPath><clipPath id="clip3"><rect x="467" y="140" width="24" height="24"/></clipPath></defs><g clip-path="url(#clip0)" transform="translate(-466 -140)"><g clip-path="url(#clip1)"><g clip-path="url(#clip2)"><g clip-path="url(#clip3)"><path d="M486.688 142 475.688 143.5C474.688 143.602 474 144.5 474 145.5L474 155.781C473.539 155.699 473.039 155.699 472.5 155.812 470.602 156.312 469 157.988 469 159.688 469 161.387 470.602 162.406 472.5 161.906 474.398 161.406 476 159.699 476 158L476 149.406 487 147.938 487 154.719C486.539 154.637 486.039 154.672 485.5 154.812 483.602 155.312 482 156.988 482 158.688 482 160.387 483.602 161.406 485.5 160.906 487.398 160.406 489 158.699 489 157L489 144C489 142.801 487.887 141.898 486.688 142Z" fill="#864F89" fill-rule="nonzero" fill-opacity="1"/></g></g></g></g></svg>