<svg width="821" height="729" xmlns="http://www.w3.org/2000/svg" xmlns:xlink="http://www.w3.org/1999/xlink" overflow="hidden"><defs><clipPath id="clip0"><rect x="2511" y="1228" width="821" height="729"/></clipPath></defs>
    <g clip-path="url(#clip0)" transform="translate(-2511 -1228)">
        <path d="M2513 1776.5C2513 1677.92 2696.34 1598 2922.5 1598 3148.66 1598 3332 1677.92 3332 1776.5 3332 1875.08 3148.66 1955 2922.5 1955 2696.34 1955 2513 1875.08 2513 1776.5Z" fill="current" fill-rule="evenodd" fill-opacity=".1" filter="brightness(2)" />
        <path d="M3071.85 1504C3091.59 1538.94 3111.34 1573.88 3132.5 1636.02 3151.01 1690.4 3182.3 1802.16 3194.71 1857.12L3195 1858.51 3173.22 1872 3144.35 1854.16 3138.7 1832.59C3129.01 1788.59 3118.04 1723.98 3104.29 1681 3085.95 1623.69 3057.16 1560.7 3038 1524.31Z" fill="current" fill-rule="evenodd" fill-opacity="1"/>
        <path d="M33.7865 0C53.4951 37.8057 73.2042 75.6117 94.3207 142.851 112.798 201.685 144.029 322.616 156.421 382.076L156.708 383.582 134.97 398.179 106.15 378.875 100.513 355.532C90.8453 307.924 79.8909 238.019 66.1651 191.514 47.8639 129.508 19.1222 61.3531 0 21.9775Z" fill="current" fill-rule="evenodd" fill-opacity="1" transform="matrix(-0.992937 0.118639 0.118639 0.992937 2796.85 1500.91)"/>
        <path d="M28.4223 0C45.0019 26.7262 61.5818 53.4526 79.3458 100.986 94.8892 142.578 121.162 228.069 131.587 270.103L131.828 271.168 113.542 281.487 89.2968 267.84 84.5548 251.338C76.4221 217.682 67.2069 168.264 55.6603 135.388 40.2648 91.5537 16.0862 43.3727 0 15.5367Z" fill="current" fill-rule="evenodd" fill-opacity="1" transform="matrix(-0.998142 0.0609333 0.0609333 0.998142 2735.49 1470.98)"/>
        <path d="M3106.54 1445C3123.77 1469.31 3141 1493.61 3159.46 1536.84 3175.61 1574.67 3202.92 1652.42 3213.75 1690.65L3214 1691.61 3195 1701 3169.8 1688.59 3164.87 1673.58C3156.42 1642.97 3146.84 1598.03 3134.84 1568.13 3118.84 1528.26 3093.72 1484.45 3077 1459.13Z" fill="current" fill-rule="evenodd" fill-opacity="1"/>
        <path d="M3062.68 1510 3090.41 1537.21 3102.03 1559.96C3112.04 1580.82 3122.22 1605.08 3132.75 1636.14 3151.19 1690.48 3182.35 1802.2 3194.71 1857.12L3195 1858.52 3173.31 1872 3173.02 1871.82 3172.88 1870.43C3171.03 1853.07 3168.18 1831.1 3164.18 1812.64 3156.19 1775.73 3139.65 1718.47 3127.66 1679.09 3115.68 1639.71 3105.03 1606.41 3092.29 1576.35 3085.91 1561.32 3079.19 1547.86 3072.28 1535.19L3059 1512.22Z" fill="#000000" fill-rule="evenodd" fill-opacity="0.2"/>
        <path d="M3.69265 0 31.4779 29.4531 43.1279 54.0806C53.1582 76.6629 63.3647 102.924 73.9228 136.543 92.3997 195.378 123.631 316.309 136.023 375.769L136.31 377.274 114.573 391.872 114.275 391.673 114.143 390.173C112.285 371.38 109.425 347.593 105.422 327.616 97.4149 287.662 80.8293 225.671 68.8194 183.039 56.8095 140.408 46.1336 104.367 33.361 71.8268 26.9747 55.5568 20.231 40.9862 13.3087 27.2647L0 2.40211Z" fill="#000000" fill-rule="evenodd" fill-opacity="0.2" transform="matrix(-0.992937 0.118639 0.118639 0.992937 2777.35 1509.6)"/>
        <path d="M3.10638 0 26.4803 20.8215 36.2807 38.2315C44.7186 54.1958 53.3046 72.7606 62.1864 96.5274 77.7298 138.119 104.003 223.61 114.428 265.644L114.669 266.709 96.3824 277.028 96.1323 276.888 96.0211 275.827C94.4576 262.542 92.0522 245.726 88.6843 231.603 81.9488 203.358 67.9964 159.535 57.8933 129.397 47.7901 99.2595 38.8092 73.7805 28.0644 50.7769 22.692 39.2751 17.019 28.9746 11.1957 19.2744L0 1.69814Z" fill="#000000" fill-rule="evenodd" fill-opacity="0.2" transform="matrix(-0.998142 0.0609333 0.0609333 0.998142 2718.63 1476.48)"/>
        <path d="M3097.25 1449 3121.71 1467.94 3131.97 1483.78C3140.8 1498.3 3149.78 1515.19 3159.08 1536.81 3175.34 1574.64 3202.84 1652.41 3213.75 1690.64L3214 1691.61 3194.86 1701 3194.6 1700.87 3194.49 1699.91C3192.85 1687.82 3190.33 1672.53 3186.81 1659.68 3179.76 1633.99 3165.16 1594.12 3154.58 1566.71 3144.01 1539.29 3134.61 1516.11 3123.37 1495.19 3117.75 1484.73 3111.81 1475.36 3105.72 1466.53L3094 1450.54Z" fill="#000000" fill-rule="evenodd" fill-opacity="0.2"/>
        <path d="M2532 1396.5C2532 1313.38 2695.86 1246 2898 1246 3100.14 1246 3264 1313.38 3264 1396.5 3264 1479.62 3100.14 1547 2898 1547 2695.86 1547 2532 1479.62 2532 1396.5Z" fill="current" fill-rule="evenodd" fill-opacity="1"/>
        <path d="M2532 1382C2532 1298.6 2695.86 1231 2898 1231 3100.14 1231 3264 1298.6 3264 1382 3264 1465.4 3100.14 1533 2898 1533 2695.86 1533 2532 1465.4 2532 1382Z" fill="#F2F2F2" fill-rule="evenodd" fill-opacity="1"/>
        <path d="M2639.55 1233C2654.38 1233.64 2678.23 1234.72 2685.97 1253.96L2686 1348.47C2679.54 1354.61 2654.55 1359.69 2639.55 1358.92 2624.55 1358.16 2602.46 1350.05 2596 1343.91L2597 1251.05 2597.47 1251.05 2597 1250.11C2597 1240.66 2616.05 1233 2639.55 1233Z" fill="current" fill-rule="evenodd" fill-opacity="1"/>
        <path d="M2639.55 1233C2654.38 1233.64 2678.23 1234.72 2685.97 1253.96L2686 1348.47C2679.54 1354.61 2654.55 1359.69 2639.55 1358.92 2624.55 1358.16 2602.46 1350.05 2596 1343.91L2597 1251.05 2597.47 1251.05 2597 1250.11C2597 1240.66 2616.05 1233 2639.55 1233Z" fill="#FFF" fill-rule="evenodd" fill-opacity=".5"/>
        <path d="M2604 1253.5C2604 1246.04 2620.34 1240 2640.5 1240 2660.66 1240 2677 1246.04 2677 1253.5 2677 1260.96 2660.66 1267 2640.5 1267 2620.34 1267 2604 1260.96 2604 1253.5Z" fill="#E7E7EA" fill-rule="evenodd" fill-opacity="1"/>
        <path d="M2686.73 1272 2686.74 1322.54 2707.38 1327.49C2732.67 1335.17 2752.79 1346.36 2753 1356.44 2753.28 1369.88 2702.87 1369.95 2683.94 1364.96 2674.48 1362.47 2665.21 1361.52 2658.23 1360.29L2652.15 1358.64 2639.94 1359.07 2625 1355.81 2626.26 1354.94C2635.74 1348.25 2655.93 1332.93 2665.82 1317.4 2672.41 1307.04 2678.35 1294.05 2683.97 1279.74Z" fill="#000000" fill-rule="evenodd" fill-opacity="0.2" />
    </g>
</svg>