<svg width="100%" viewBox="0 0 253 453" xmlns="http://www.w3.org/2000/svg" xmlns:xlink="http://www.w3.org/1999/xlink" overflow="hidden"><defs><clipPath id="clip0"><rect x="1494" y="1837" width="256" height="335"/></clipPath></defs><g clip-path="url(#clip0)" transform="translate(-1494 -1837)"><path d="M1683.64 2132.56C1680.39 2134.4 1677.13 2136.25 1675.7 2139.08 1674.26 2141.92 1672.25 2145.19 1675.01 2149.56 1677.77 2153.94 1682.99 2161.82 1692.25 2165.34 1701.52 2168.86 1721.11 2173.29 1730.61 2170.69 1740.12 2168.08 1750.78 2156.51 1749.29 2149.71 1747.79 2142.92 1729.27 2133.24 1721.66 2129.91 1714.05 2126.58 1708.83 2128.15 1703.62 2129.72" fill="#D8D9DE" fill-rule="evenodd" fill-opacity="1"/><path d="M1673.93 2132.59C1675.9 2138.35 1681.85 2147.14 1681.85 2147.14 1692.5 2155.47 1708.57 2141.44 1710.79 2135.02 1710.33 2128 1702.74 2118.31 1695.15 2108.61" fill="#C2B39D" fill-rule="evenodd" fill-opacity="1"/><path d="M1674.05 2143.05 1675.26 2145.65C1676.66 2148.23 1678.15 2150.53 1679.77 2152.45 1686.21 2160.14 1694.24 2161.55 1702.92 2163.52 1711.59 2165.5 1724.3 2166.27 1731.81 2164.31 1739.32 2162.34 1745.2 2157.23 1747.97 2151.73L1748.57 2148.73 1749.26 2149.71C1750.76 2156.51 1740.1 2168.09 1730.59 2170.69 1721.09 2173.3 1701.5 2168.86 1692.23 2165.34 1682.97 2161.82 1677.75 2153.94 1674.99 2149.57 1673.61 2147.38 1673.42 2145.47 1673.76 2143.75Z" fill="#848484" fill-rule="evenodd" fill-opacity="1"/><path d="M1547.18 1851.3C1568.03 1873.83 1635.73 1992.09 1635.73 1992.09 1661.7 2036.42 1697.89 2092.91 1703 2117.24 1698.74 2131.14 1693.21 2145.19 1666.39 2138.1 1642.97 2103.19 1590.22 2015.49 1562.51 1975.58 1534.79 1935.67 1508.76 1918.39 1500.11 1898.62 1491.46 1878.85 1502.77 1864.82 1510.62 1856.94 1518.46 1849.05 1526.33 1828.78 1547.18 1851.3Z" fill="current" fill-rule="evenodd" fill-opacity="1"/><path d="M1501.91 1869 1503.91 1871.11C1507.32 1874.96 1511.16 1879.52 1515.78 1885.09 1540.46 1914.79 1577.95 1970.39 1603.95 2014.4 1623.86 2048.1 1653.26 2094.75 1665.78 2125.82L1670 2138 1666.49 2137.64C1643.06 2102.86 1590.27 2015.48 1562.54 1975.71 1534.82 1935.93 1508.77 1918.72 1500.11 1899.02 1495.79 1889.17 1496.45 1880.75 1499.18 1873.81Z" fill="#000000" fill-rule="evenodd" fill-opacity="0.2"/></g></svg>