<svg width="69" height="59" xmlns="http://www.w3.org/2000/svg" xmlns:xlink="http://www.w3.org/1999/xlink" overflow="hidden"><defs><clipPath id="clip0"><rect x="1338" y="1746" width="69" height="59"/></clipPath></defs><g clip-path="url(#clip0)" transform="translate(-1338 -1746)"><path d="M1343.88 1801.45C1338.63 1797.76 1342.02 1771.93 1342.72 1765.91L1348.05 1765.31 1352.63 1760.88C1354.96 1758.77 1357.29 1756.87 1359.63 1755.42 1364.29 1752.5 1371.29 1749.2 1373.62 1750.17 1374.79 1750.66 1375.08 1752.16 1374.93 1754.18L1374.26 1757.77 1382.34 1760.38C1390.82 1764.21 1399.71 1771.08 1403.36 1775.81 1408.21 1782.13 1408.21 1793.59 1403.36 1795.62 1398.5 1797.66 1384.11 1787.08 1374.2 1788.05 1364.29 1789.02 1349.13 1805.14 1343.88 1801.45Z" fill="#C1B29C" fill-rule="evenodd" fill-opacity="1"/></g></svg>