<svg width="54" height="56" xmlns="http://www.w3.org/2000/svg" xmlns:xlink="http://www.w3.org/1999/xlink" overflow="hidden"><defs><clipPath id="clip0"><rect x="416" y="98" width="54" height="56"/></clipPath><clipPath id="clip1"><path d="M416.092 101.769 467.345 99.2557 469.858 150.509 418.605 153.022Z" fill-rule="nonzero" clip-rule="nonzero"/></clipPath><clipPath id="clip2"><path d="M416.092 101.769 467.345 99.2557 469.858 150.509 418.605 153.022Z" fill-rule="evenodd" clip-rule="evenodd"/></clipPath><clipPath id="clip3"><path d="M416.092 101.769 467.345 99.2557 469.858 150.509 418.605 153.022Z" fill-rule="evenodd" clip-rule="evenodd"/></clipPath></defs><g clip-path="url(#clip0)" transform="translate(-416 -98)"><g clip-path="url(#clip1)"><g clip-path="url(#clip2)"><g clip-path="url(#clip3)"><path d="M437.636 126.401C432.329 126.661 428.237 131.175 428.497 136.482 428.758 141.79 433.271 145.881 438.579 145.621 443.886 145.361 447.978 140.847 447.717 135.54 447.457 130.232 442.944 126.141 437.636 126.401Z" fill="#864F89" fill-rule="nonzero" fill-opacity="1"/><path d="M442.032 106.919 443.446 135.749 447.717 135.54 446.722 115.252 458.625 117.879 458.258 110.405Z" fill="#864F89" fill-rule="nonzero" fill-opacity="1"/></g></g></g></g></svg>